<svg width="15" height="16" viewBox="0 0 15 16" fill="none" xmlns="http://www.w3.org/2000/svg">
<g clip-path="url(#clip0)">
<path d="M13.1688 2.29236H1.83426C0.822471 2.29236 0 3.11483 0 4.12662V11.8734C0 12.8852 0.822471 13.7076 1.83426 13.7076H13.1657C14.1775 13.7076 15 12.8852 15 11.8734V4.12973C15.0031 3.11793 14.1806 2.29236 13.1688 2.29236ZM14.1651 11.8734C14.1651 12.4227 13.7182 12.8696 13.1688 12.8696H1.83426C1.28492 12.8696 0.837989 12.4227 0.837989 11.8734V4.12973C0.837989 3.58038 1.28492 3.13345 1.83426 3.13345H13.1657C13.7151 3.13345 14.162 3.58038 14.162 4.12973V11.8734H14.1651Z" fill="#999999"/>
<path d="M9.46007 7.90383L13.1286 4.61395C13.2993 4.45876 13.3148 4.19495 13.1596 4.02115C13.0044 3.85045 12.7406 3.83493 12.5668 3.99011L7.50786 8.53077L6.5209 7.64933C6.51779 7.64623 6.51469 7.64312 6.51469 7.64002C6.49297 7.61829 6.47124 7.59967 6.44641 7.58105L2.43027 3.98701C2.25647 3.83182 1.99265 3.84734 1.83747 4.02115C1.68229 4.19495 1.69781 4.45876 1.87161 4.61395L5.58359 7.93176L1.88713 11.3923C1.71953 11.5506 1.71022 11.8144 1.86851 11.9851C1.95231 12.072 2.06404 12.1186 2.17577 12.1186C2.27819 12.1186 2.38061 12.0814 2.46131 12.0069L6.21364 8.49663L7.23164 9.406C7.31233 9.47739 7.41165 9.51153 7.51097 9.51153C7.61028 9.51153 7.7127 9.47428 7.7903 9.4029L8.83623 8.46559L12.5668 12.01C12.6475 12.0876 12.7531 12.1248 12.8555 12.1248C12.9672 12.1248 13.0758 12.0814 13.1596 11.9945C13.3179 11.8269 13.3117 11.5599 13.1441 11.4017L9.46007 7.90383Z" fill="#999999"/>
</g>
<defs>
<clipPath id="clip0">
<rect y="0.5" width="15" height="15" fill="white"/>
</clipPath>
</defs>
</svg>
