<svg width="12" height="16" viewBox="0 0 12 16" fill="none" xmlns="http://www.w3.org/2000/svg">
<path d="M6.48959 0.5C3.45827 0.5 0.992188 2.96609 0.992188 5.9974C0.992188 7.38992 1.86961 9.35738 3.60018 11.8452C4.8651 13.6638 6.10918 15.0711 6.1616 15.1301L6.48959 15.5L6.81769 15.1301C6.86999 15.0711 8.11407 13.6638 9.3791 11.8452C11.1096 9.35738 11.9871 7.38992 11.9871 5.9974C11.9871 2.96609 9.5209 0.5 6.48959 0.5ZM8.66396 11.3373C7.80898 12.5673 6.94483 13.6259 6.48959 14.166C6.03548 13.6274 5.17455 12.5728 4.32013 11.3444C2.7167 9.03935 1.86915 7.19033 1.86915 5.9974C1.86915 3.44971 3.9419 1.37696 6.48959 1.37696C9.03738 1.37696 11.11 3.44971 11.11 5.9974C11.11 7.18907 10.2642 9.03558 8.66396 11.3373Z" fill="#999999"/>
<path d="M6.48963 2.53174C4.70058 2.53174 3.24512 3.9872 3.24512 5.77625C3.24512 7.56531 4.70058 9.02088 6.48963 9.02088C8.2788 9.02088 9.73426 7.56531 9.73426 5.77625C9.73426 3.9872 8.2788 2.53174 6.48963 2.53174ZM6.48963 8.14392C5.1842 8.14392 4.12208 7.08179 4.12208 5.77625C4.12208 4.47083 5.1842 3.4087 6.48963 3.4087C7.79517 3.4087 8.8573 4.47083 8.8573 5.77625C8.8573 7.08179 7.79517 8.14392 6.48963 8.14392Z" fill="#999999"/>
</svg>
