<svg width="15" height="16" viewBox="0 0 15 16" fill="none" xmlns="http://www.w3.org/2000/svg">
<g clip-path="url(#clip0)">
<path d="M14.6064 12.0718L11.5703 10.0471C11.1851 9.7922 10.6686 9.87607 10.3838 10.2398L9.49938 11.3769C9.38573 11.5267 9.17913 11.5702 9.01471 11.4789L8.84648 11.3861C8.28881 11.0822 7.59493 10.7037 6.19688 9.30518C4.79884 7.90664 4.41965 7.21223 4.11568 6.65559L4.02344 6.48736C3.93084 6.32297 3.97349 6.11549 4.12341 6.00093L5.25973 5.11682C5.62331 4.83195 5.70729 4.31564 5.45271 3.93024L3.42801 0.894186C3.1671 0.501725 2.64364 0.383911 2.23973 0.626716L0.970159 1.38935C0.571253 1.62386 0.278592 2.00367 0.153542 2.44918C-0.303626 4.11493 0.0402969 6.98976 4.27518 11.2251C7.64393 14.5936 10.1518 15.4995 11.8756 15.4995C12.2723 15.5012 12.6674 15.4496 13.0504 15.346C13.496 15.2211 13.8759 14.9284 14.1102 14.5294L14.8736 13.2606C15.1168 12.8566 14.999 12.3328 14.6064 12.0718ZM14.4429 13.0041L13.6813 14.2737C13.513 14.5617 13.2398 14.7735 12.9189 14.8646C11.3811 15.2868 8.69451 14.9371 4.62885 10.8715C0.563198 6.8058 0.213533 4.11944 0.635726 2.58144C0.727002 2.26016 0.939021 1.98659 1.22738 1.81804L2.49694 1.05641C2.6722 0.950955 2.89939 1.00207 3.01261 1.17238L4.11246 2.82363L5.03558 4.20817C5.14613 4.37534 5.10981 4.5994 4.9521 4.7231L3.81552 5.60721C3.46963 5.87169 3.37086 6.35024 3.58381 6.73005L3.67406 6.89403C3.99353 7.47994 4.39071 8.20882 5.84074 9.65863C7.29078 11.1084 8.01944 11.5056 8.60508 11.825L8.76929 11.9155C9.14907 12.1285 9.62765 12.0297 9.89214 11.6838L10.7762 10.5472C10.9 10.3896 11.1239 10.3533 11.2912 10.4638L14.327 12.4885C14.4974 12.6016 14.5485 12.8289 14.4429 13.0041Z" fill="#999999"/>
<path d="M8.49947 3.00125C10.8452 3.00386 12.7462 4.90485 12.7488 7.25063C12.7488 7.38868 12.8607 7.50058 12.9988 7.50058C13.1369 7.50058 13.2488 7.38868 13.2488 7.25063C13.2459 4.62886 11.1212 2.50421 8.49947 2.50134C8.36141 2.50134 8.24951 2.61324 8.24951 2.7513C8.24951 2.88935 8.36141 3.00125 8.49947 3.00125Z" fill="#999999"/>
<path d="M8.49947 4.50113C10.0173 4.50291 11.2473 5.73291 11.2491 7.25073C11.2491 7.38878 11.361 7.50068 11.499 7.50068C11.6371 7.50068 11.749 7.38878 11.749 7.25073C11.7469 5.45691 10.2933 4.00327 8.49947 4.00122C8.36141 4.00122 8.24951 4.11312 8.24951 4.25117C8.24951 4.38923 8.36141 4.50113 8.49947 4.50113Z" fill="#999999"/>
<path d="M8.49947 6.00088C9.18936 6.0017 9.74844 6.56078 9.74929 7.25071C9.74929 7.38876 9.86122 7.50066 9.99924 7.50066C10.1373 7.50066 10.2492 7.38876 10.2492 7.25071C10.2481 6.28482 9.46536 5.50206 8.49947 5.50098C8.36141 5.50098 8.24951 5.61287 8.24951 5.75093C8.24951 5.88899 8.36141 6.00088 8.49947 6.00088Z" fill="#999999"/>
</g>
<defs>
<clipPath id="clip0">
<rect y="0.5" width="15" height="15" fill="white"/>
</clipPath>
</defs>
</svg>
